<?xml version="1.0" standalone="no"?>
<!DOCTYPE svg PUBLIC "-//W3C//DTD SVG 20010904//EN"
 "http://www.w3.org/TR/2001/REC-SVG-20010904/DTD/svg10.dtd">
<svg version="1.0" xmlns="http://www.w3.org/2000/svg"
 width="350.000000pt" height="370.000000pt" viewBox="0 0 350.000000 370.000000"
 preserveAspectRatio="xMidYMid meet">

<g transform="translate(0.000000,370.000000) scale(0.100000,-0.100000)"
fill="#000000" stroke="none">
<path d="M1655 3129 c-92 -46 -138 -119 -139 -220 0 -53 5 -74 27 -112 30 -50
72 -86 127 -107 19 -8 38 -18 41 -22 3 -5 2 -36 -3 -71 -4 -34 -14 -116 -22
-182 -8 -66 -22 -174 -30 -240 -9 -66 -23 -178 -32 -250 -8 -71 -19 -159 -24
-195 -5 -36 -14 -108 -20 -160 -13 -115 -33 -180 -63 -207 -79 -73 -198 -70
-270 5 -16 17 -116 242 -267 602 -192 455 -240 578 -231 590 57 78 64 114 31
167 -21 35 -66 63 -101 63 -37 0 -97 -41 -115 -78 -24 -50 -13 -99 31 -139 19
-18 43 -33 54 -33 11 0 22 -8 26 -19 5 -18 37 -217 55 -351 5 -36 25 -173 45
-305 20 -132 41 -267 45 -300 4 -33 18 -123 29 -200 28 -183 41 -267 51 -340
25 -179 71 -475 76 -489 6 -14 82 -16 769 -16 598 0 765 3 773 13 5 6 22 93
37 192 32 221 148 1003 175 1180 58 386 80 535 86 578 6 44 9 48 50 66 100 45
112 166 21 221 -41 25 -68 25 -118 -1 -72 -36 -89 -131 -34 -189 14 -14 25
-31 25 -37 0 -19 -471 -1127 -493 -1160 -70 -104 -244 -95 -305 17 -27 47 -23
22 -102 655 -38 308 -72 575 -75 593 -5 26 -3 32 12 32 32 0 118 57 145 97 84
121 47 279 -81 345 -66 35 -145 37 -206 7z m174 -49 c177 -90 122 -350 -74
-350 -66 0 -100 16 -143 64 -106 121 -24 304 136 306 23 0 60 -9 81 -20z
m-1125 -351 c13 -7 30 -25 37 -42 35 -84 -95 -135 -133 -52 -15 34 -1 76 32
92 31 16 33 16 64 2z m2150 0 c13 -7 30 -25 37 -42 35 -84 -95 -135 -133 -52
-15 34 -1 76 32 92 31 16 33 16 64 2z m-1083 -369 c11 -102 24 -206 49 -395
28 -211 39 -297 54 -430 15 -126 36 -177 93 -224 65 -53 171 -67 248 -32 82
37 96 63 315 583 163 389 206 481 208 455 2 -18 -1 -54 -7 -82 -6 -27 -20
-113 -31 -190 -11 -77 -24 -169 -30 -205 -6 -36 -24 -157 -40 -270 -17 -113
-35 -234 -40 -270 -9 -56 -52 -350 -90 -610 -6 -41 -13 -85 -16 -97 l-4 -23
-729 0 -729 0 -6 27 c-3 16 -13 78 -21 138 -17 117 -36 246 -140 940 -36 242
-72 487 -81 543 -8 57 -13 109 -11 115 2 6 23 -37 46 -94 24 -57 100 -237 168
-399 69 -162 141 -333 160 -380 45 -106 65 -134 116 -167 48 -30 145 -42 200
-24 57 19 113 66 136 114 23 48 32 105 112 755 45 360 53 385 70 222z"/>
</g>
</svg>
